<svg width="20" height="20" viewBox="0 0 20 20" fill="none" xmlns="http://www.w3.org/2000/svg">
<path d="M12.8125 10C12.8125 14.0625 17.8125 14.0625 17.8125 10C17.8125 8.45484 17.3543 6.94437 16.4959 5.65961C15.6374 4.37485 14.4173 3.3735 12.9897 2.78219C11.5622 2.19088 9.99134 2.03617 8.47586 2.33762C6.96038 2.63907 5.56833 3.38313 4.47573 4.47573C3.38313 5.56833 2.63907 6.96038 2.33762 8.47586C2.03617 9.99134 2.19088 11.5622 2.78219 12.9897C3.3735 14.4173 4.37485 15.6374 5.65961 16.4959C6.94437 17.3543 8.45484 17.8125 10 17.8125C12.8125 17.8125 14.0625 16.5625 14.0625 16.5625" stroke="#84AFC0" stroke-linecap="round" stroke-linejoin="round"/>
<path d="M10 12.8125C11.5533 12.8125 12.8125 11.5533 12.8125 10C12.8125 8.4467 11.5533 7.1875 10 7.1875C8.4467 7.1875 7.1875 8.4467 7.1875 10C7.1875 11.5533 8.4467 12.8125 10 12.8125Z" stroke="#84AFC0" stroke-linecap="round" stroke-linejoin="round"/>
</svg>
